<svg width="21" height="12" viewBox="0 0 21 12" fill="none" xmlns="http://www.w3.org/2000/svg">
<path d="M2.33333 2.4V9.6H14V2.4H2.33333ZM19.8333 9C20.1554 9 20.4303 8.88281 20.6582 8.64844C20.8861 8.41406 21 8.13125 21 7.8V4.2C21 3.86875 20.8861 3.58594 20.6582 3.35156C20.4303 3.11719 20.1554 3 19.8333 3V1.5C19.8333 1.0875 19.6905 0.734375 19.4049 0.440625C19.1194 0.146875 18.776 -4.76837e-07 18.375 -4.76837e-07H1.45833C1.05729 -4.76837e-07 0.713976 0.146875 0.428385 0.440625C0.142795 0.734375 0 1.0875 0 1.5V10.5C0 10.9125 0.142795 11.2656 0.428385 11.5594C0.713976 11.8531 1.05729 12 1.45833 12H18.375C18.776 12 19.1194 11.8531 19.4049 11.5594C19.6905 11.2656 19.8333 10.9125 19.8333 10.5V9ZM19.8333 4.2V7.8H18.6667V10.5C18.6667 10.5875 18.6393 10.6594 18.5846 10.7156C18.5299 10.7719 18.4601 10.8 18.375 10.8H1.45833C1.37326 10.8 1.30339 10.7719 1.2487 10.7156C1.19401 10.6594 1.16667 10.5875 1.16667 10.5V1.5C1.16667 1.4125 1.19401 1.34062 1.2487 1.28437C1.30339 1.22812 1.37326 1.2 1.45833 1.2H18.375C18.4601 1.2 18.5299 1.22812 18.5846 1.28437C18.6393 1.34062 18.6667 1.4125 18.6667 1.5V4.2H19.8333Z" fill="white"/>
</svg>